<?xml version="1.0" encoding="UTF-8" standalone="no"?>
<!DOCTYPE svg PUBLIC "-//W3C//DTD SVG 1.1//EN" "http://www.w3.org/Graphics/SVG/1.1/DTD/svg11.dtd">
<svg width="100%" height="100%" viewBox="0 0 2304 1402" version="1.1" xmlns="http://www.w3.org/2000/svg" xmlns:xlink="http://www.w3.org/1999/xlink" xml:space="preserve" xmlns:serif="http://www.serif.com/" style="fill-rule:evenodd;clip-rule:evenodd;stroke-linejoin:round;stroke-miterlimit:2;">
    <g transform="matrix(1,0,0,1,158,790)">
        <path d="M2145.95,421.264L2139,-790L-158,-736L-85,223L-48.203,556.908C-15.603,600.375 38.39,627.156 89.285,601.423C117.372,587.221 147.722,553.769 182.194,562.186C218.068,570.946 241.674,607.89 280.318,609.436C348.112,612.147 372.897,551.287 415.135,542.154C442.605,536.215 502.489,579.555 542.83,581.963C601.907,585.49 632.718,543.882 677.711,542.027C744.938,539.255 788.434,586.94 872.623,573.696C944.439,562.399 990.991,500.224 1063.85,494.587C1174.75,486.005 1254.97,599.26 1368.27,588.005C1474.44,577.457 1512.31,424.612 1588.43,412.17C1605.39,409.397 1622.23,416.331 1636.63,424.634C1658.07,436.994 1677.29,453.435 1691.64,473.665C1715.36,507.112 1727.17,565.115 1771.89,577.512C1842.99,597.221 1878.88,517.602 1932.15,489.499C1970.15,469.451 2010.29,476.911 2050.81,469.722C2086.4,463.408 2117.69,442.735 2145.95,421.264Z"/>
    </g>
</svg>
